HIERARCHY
ROOT Hips
{
    OFFSET 0.000000 0.000000 0.000000
    CHANNELS 6 Xposition Yposition Zposition Zrotation Xrotation Yrotation
        JOINT Chest
        {
            OFFSET -0.000000 31.935503 -0.000000
            CHANNELS 3 Zrotation Xrotation Yrotation
            JOINT Neck
            {
                OFFSET -0.000000 23.713140 0.000000
                CHANNELS 3 Zrotation Xrotation Yrotation
                JOINT Head
                {
                    OFFSET -0.000000 10.938888 0.000000
                    CHANNELS 3 Zrotation Xrotation Yrotation
                    End Site
                    {
                        OFFSET -0.000000 16.905556 0.000000
                    }
                }
            }
            JOINT LeftCollar
            {
                OFFSET -0.000000 23.713140 0.000000
                CHANNELS 3 Zrotation Xrotation Yrotation
                JOINT LeftShoulder
                {
                    OFFSET 19.888887 -0.000000 0.000000
                    CHANNELS 3 Zrotation Xrotation Yrotation
                    JOINT LeftElbow
                    {
                        OFFSET 23.906332 0.000000 0.000000
                        CHANNELS 3 Zrotation Xrotation Yrotation
                        JOINT LeftWrist
                        {
                            OFFSET 25.116924 0.000000 0.000000
                            CHANNELS 3 Zrotation Xrotation Yrotation
                            End Site
                            {
                                OFFSET 0.000000 -14.916667 0.000000
                            }
                        }
                    }
                }
            }
            JOINT RightCollar
            {
                OFFSET -0.000000 23.713140 0.000000
                CHANNELS 3 Zrotation Xrotation Yrotation
                JOINT RightShoulder
                {
                    OFFSET -19.888887 0.000000 0.000000
                    CHANNELS 3 Zrotation Xrotation Yrotation
                    JOINT RightElbow
                    {
                        OFFSET -23.906332 0.000000 0.000000
                        CHANNELS 3 Zrotation Xrotation Yrotation
                        JOINT RightWrist
                        {
                            OFFSET -25.116924 0.000000 0.000000
                            CHANNELS 3 Zrotation Xrotation Yrotation
                            End Site
                            {
                                OFFSET -0.000000 -14.916667 0.000000
                            }
                        }
                    }
                }
            }
        }
    JOINT LeftHip
    {
        OFFSET 11.933332 0.000000 0.000000
        CHANNELS 3 Zrotation Xrotation Yrotation
        JOINT LeftKnee
        {
            OFFSET -0.000000 -35.996647 0.000000
            CHANNELS 3 Zrotation Xrotation Yrotation
            JOINT LeftAnkle
            {
                OFFSET -0.000000 -39.788193 0.000000
                CHANNELS 3 Zrotation Xrotation Yrotation
                End Site
                {
                    OFFSET -0.000000 -4.972222 16.905556
                }
            }
        }
    }
    JOINT RightHip
    {
        OFFSET -11.933332 0.000000 0.000000
        CHANNELS 3 Zrotation Xrotation Yrotation
        JOINT RightKnee
        {
            OFFSET -0.000000 -35.996647 0.000000
            CHANNELS 3 Zrotation Xrotation Yrotation
            JOINT RightAnkle
            {
                OFFSET -0.000000 -39.788193 0.000000
                CHANNELS 3 Zrotation Xrotation Yrotation
                End Site
                {
                    OFFSET -0.000000 -4.972222 16.905556
                }
            }
        }
    }
}
MOTION
Frames:    15
Frame Time:    0.010000
-16.542812    85.792336    -28.675171    -0.046684    1.643768    -68.508087    3.247928    19.918747    7.589209    13.944496    3.334295    16.680323    -27.333483    -9.645916    16.312140    -17.024744    1.018187    -6.566867    -32.444057    43.309891    -35.631317    24.456812    -16.473461    -67.603195    102.779259    20.429813    72.448853    9.659166    -0.878765    -10.043869    4.098249    62.970310    66.314903    -17.078186    -10.480122    62.643444    -107.575447    0.614708    -33.348305    15.573750    -20.247786    7.414977    -5.149475    28.466883    -1.240639    -5.978985    -6.648089    11.208348    -6.852991    -7.231544    -11.428622    5.566237    27.017450    -20.719126    7.721756    -16.222357    1.145153    
-16.249624    85.717400    -29.105658    0.696067    1.945794    -68.660950    3.749193    19.271883    7.584914    15.321000    0.617532    15.311892    -28.223118    -11.042566    12.475252    -16.611801    1.198611    -9.781846    -32.005245    44.030231    -36.096344    24.120626    -16.191326    -67.904587    103.314621    20.935614    72.147308    9.856453    -1.082892    -14.198537    3.375330    62.156185    67.467979    -17.361181    -10.728566    62.583927    -106.909126    0.283823    -33.862625    16.023460    -21.487244    7.223263    -5.611142    28.840275    -0.414344    -6.158125    -6.514369    11.275217    -6.714198    -9.001921    -11.614058    5.430514    28.166578    -20.515760    7.527114    -16.477770    1.050292    
-14.910497    85.806107    -30.010462    4.743582    3.313779    -69.013908    3.555208    14.969437    7.826885    15.470612    0.670677    15.387384    -28.358770    -10.621205    12.795685    -16.703289    1.329696    -9.780490    -31.629894    43.941132    -36.470230    24.205217    -16.498495    -68.184357    102.695160    21.884943    72.881088    9.858809    -1.162529    -14.249728    3.271585    62.259808    67.497162    -17.274984    -10.565318    62.563244    -107.462776    0.114993    -33.980373    16.622366    -27.089628    5.471138    -7.213148    29.559435    3.720703    -6.952204    -6.107752    11.105966    -6.584262    -15.958156    -12.165620    4.598449    30.824478    -20.844479    7.548106    -16.507113    1.406900    
-14.457098    85.847778    -30.421534    6.170298    3.776678    -69.216774    3.514805    13.471566    7.900680    15.542824    0.743757    15.422675    -28.448053    -10.590728    12.836091    -16.764153    1.406794    -9.828338    -31.397425    43.898262    -36.644440    24.215492    -16.576567    -68.310257    102.568329    22.226294    73.055695    9.858865    -1.203366    -14.277920    3.316300    62.319046    67.402252    -17.217058    -10.529947    62.608879    -107.574837    0.003591    -34.121555    16.995907    -29.050764    5.158964    -7.739363    29.868610    4.959854    -7.263825    -5.977050    11.102366    -6.499516    -18.503483    -12.307381    4.302035    31.907793    -20.987112    7.539555    -16.580284    1.576536    
-17.615057    85.790245    -28.972307    -5.068301    -0.430043    -69.214058    3.317070    25.606024    8.166022    15.571688    1.067767    15.575561    -28.526133    -10.705473    13.008913    -16.870178    1.424972    -9.634886    -31.196123    43.838886    -36.750889    24.291193    -16.652100    -68.400871    102.387909    22.516998    73.281586    9.853202    -1.230790    -13.964272    3.465012    62.453213    67.173325    -17.205173    -10.507382    62.640797    -107.628769    -0.140142    -34.235748    15.874270    -13.946594    10.243551    -3.678364    28.492308    -5.425509    -7.123298    -7.268589    11.698622    -6.771492    -1.258788    -9.999184    6.330169    26.907618    -21.163546    7.388030    -16.808765    1.497964    
-17.592924    85.728592    -29.166737    -5.126777    -0.462554    -69.308304    3.411217    25.722261    8.148469    15.682315    0.914118    15.510809    -28.624756    -10.508225    12.941949    -16.913925    1.460906    -9.939774    -31.012062    43.895256    -36.916679    24.234022    -16.633829    -68.500984    102.370560    22.821531    73.558678    9.863530    -1.262244    -14.327361    3.498193    62.410992    67.130981    -17.170492    -10.516030    62.676205    -107.743980    -0.267005    -34.316612    16.031403    -14.010108    10.224607    -3.753084    28.656010    -5.346936    -7.440185    -7.299238    11.811039    -6.756669    -1.516223    -10.002376    6.410833    27.357229    -21.221088    7.316977    -16.955490    1.593489    
-17.568016    85.663971    -29.368153    -5.174644    -0.496740    -69.415298    3.441385    25.825346    8.132336    15.739050    1.003989    15.565879    -28.700026    -10.415733    13.039418    -16.986177    1.493686    -9.996187    -30.840000    43.883137    -37.054386    24.209492    -16.650505    -68.559715    102.293915    22.990892    73.772224    9.876302    -1.236631    -14.342029    3.617365    62.404751    66.954506    -17.095417    -10.459226    62.752354    -107.870445    -0.385193    -34.364826    16.183653    -14.085496    10.185861    -3.829018    28.823259    -5.246379    -7.780303    -7.333543    11.933460    -6.743454    -1.797749    -10.002403    6.487865    27.822325    -21.281139    7.239872    -17.108376    1.699660    
-17.541681    85.597809    -29.571447    -5.211141    -0.531712    -69.534592    3.472008    25.923294    8.108566    15.785992    1.092769    15.629425    -28.770296    -10.335328    13.130354    -17.052660    1.533842    -10.048809    -30.693787    43.857380    -37.184395    24.201405    -16.630764    -68.578644    102.230850    23.081551    74.000572    9.873341    -1.256293    -14.347739    3.741969    62.446148    66.806404    -17.164694    -10.530356    62.731972    -107.801231    -0.606544    -34.325161    16.327625    -14.167915    10.128683    -3.904585    28.987396    -5.121174    -8.126068    -7.367154    12.058004    -6.729549    -2.093822    -9.993950    6.558098    28.287252    -21.339285    7.158364    -17.264406    1.807487    
-17.515537    85.531769    -29.772100    -5.237264    -0.566379    -69.664726    3.503917    26.015474    8.075581    15.825858    1.175905    15.700425    -28.837494    -10.238853    13.232751    -17.120815    1.525851    -10.095425    -30.572939    43.874664    -37.291306    24.240734    -16.672607    -68.550972    102.175980    23.098324    74.221382    9.877903    -1.228582    -14.345098    3.869930    62.447289    66.634445    -17.119589    -10.519079    62.776772    -107.868484    -0.767337    -34.279545    16.461397    -14.251503    10.055579    -3.978147    29.142305    -4.969785    -8.457216    -7.394200    12.175615    -6.712101    -2.393105    -9.971786    6.619679    28.736670    -21.392914    7.076606    -17.420185    1.908845    
-17.491072    85.467636    -29.966270    -5.254699    -0.599765    -69.803268    3.538290    26.100836    8.030921    15.863020    1.252233    15.777610    -28.907866    -10.124618    13.344581    -17.181185    1.516522    -10.134535    -30.503071    43.885937    -37.363808    24.278439    -16.643597    -68.494469    102.152046    23.067646    74.449982    9.867270    -1.246283    -14.336054    3.993447    62.495983    66.500572    -17.240574    -10.613361    62.719868    -107.646301    -1.065212    -34.135223    16.583454    -14.331064    9.968930    -4.047797    29.282984    -4.791735    -8.748500    -7.406460    12.276737    -6.689240    -2.684481    -9.932294    6.672547    29.156998    -21.442377    6.999550    -17.572130    1.999448    
-17.469608    85.407272    -30.150959    -5.265921    -0.631656    -69.947098    3.576289    26.179428    7.971084    15.901361    1.319543    15.858979    -28.986233    -9.989900    13.463821    -17.222424    1.564095    -10.165219    -30.461262    43.841682    -37.436440    24.191500    -16.575029    -68.451096    102.286736    23.052580    74.653366    9.868414    -1.211211    -14.323122    4.118495    62.494091    66.342522    -17.271790    -10.586536    62.731133    -107.572166    -1.268594    -34.039471    16.692066    -14.401589    9.869987    -4.111353    29.405127    -4.587660    -8.968410    -7.392415    12.351595    -6.661104    -2.957527    -9.874071    6.718788    29.537571    -21.490625    6.930397    -17.715757    2.079255    
-17.452166    85.352715    -30.324081    -5.273731    -0.663152    -70.093040    3.618945    26.251770    7.891600    15.942484    1.378916    15.942640    -29.075331    -9.835294    13.588841    -17.264845    1.551608    -10.184690    -30.423666    43.863865    -37.495922    24.257023    -16.626146    -68.349335    102.254875    22.907690    74.770821    9.852657    -1.242553    -14.309030    4.245471    62.553108    66.221695    -17.422375    -10.706154    62.645966    -107.328682    -1.544252    -33.854748    16.784668    -14.458510    9.758082    -4.166724    29.504910    -4.358712    -9.087310    -7.338927    12.392158    -6.630639    -3.203768    -9.798186    6.762276    29.871937    -21.541964    6.870041    -17.846207    2.151996    
-17.439383    85.305969    -30.484135    -5.281052    -0.696865    -70.238159    3.665822    26.319468    7.788732    15.986987    1.428938    16.026579    -29.176073    -9.659491    13.717318    -17.299532    1.529415    -10.192636    -30.437405    43.894611    -37.512962    24.304190    -16.608667    -68.244438    102.309395    22.803219    74.968636    9.851379    -1.221812    -14.297059    4.385474    62.556103    66.058060    -17.434538    -10.654666    62.668739    -107.308205    -1.661430    -33.728291    16.857922    -14.497733    9.631936    -4.212286    29.579639    -4.107750    -9.088941    -7.236540    12.394100    -6.603488    -3.417128    -9.707662    6.807737    30.158327    -21.599524    6.818234    -17.958454    2.222275    
-17.431658    85.268730    -30.629883    -5.291348    -0.736379    -70.380013    3.715021    26.385563    7.661132    16.034508    1.469743    16.109625    -29.288960    -9.463844    13.847704    -17.315552    1.560719    -10.187386    -30.469915    43.878101    -37.531498    24.226480    -16.541529    -68.172661    102.507019    22.731327    75.168610    9.838746    -1.247465    -14.288213    4.539127    62.597115    65.915878    -17.503372    -10.710874    62.637058    -107.251892    -1.760458    -33.523788    16.908901    -14.515449    9.492517    -4.246509    29.629072    -3.841764    -8.977148    -7.083253    12.357496    -6.586655    -3.593297    -9.606938    6.859815    30.399128    -21.662840    6.773864    -18.048710    2.292459    
-17.429104    85.242119    -30.760332    -5.308911    -0.785410    -70.517609    3.763136    26.454649    7.511575    16.085409    1.499770    16.189772    -29.414734    -9.250652    13.977858    -17.331226    1.543433    -10.168487    -30.487965    43.919716    -37.550880    24.292252    -16.568481    -68.062256    102.536491    22.537861    75.326637    9.838028    -1.218412    -14.284045    4.706310    62.582561    65.741684    -17.403498    -10.626451    62.719280    -107.490456    -1.653720    -33.342831    16.936724    -14.507936    9.345298    -4.268193    29.656237    -3.572855    -8.774174    -6.885162    12.286325    -6.586330    -3.729730    -9.500268    6.921356    30.600100    -21.727003    6.735702    -18.114622    2.361198    
